{"title":"Witnesses S01","uid":12297644,"size":3580613875,"categoryP":"video","categoryS":"tv_shows","magnet":"?xt=urn:btih:1742c70728b45b7815184b8e652db986b7ef5bb7&amp;dn=Witnesses+S01&amp;tr=udp%3A%2F%2Ftracker.openbittorrent.com%3A80&amp;tr=udp%3A%2F%2Fopen.demonii.com%3A1337&amp;tr=udp%3A%2F%2Ftracker.coppersurfer.tk%3A6969&amp;tr=udp%3A%2F%2Fexodus.desync.com%3A6969","seeders":9,"leechers":3,"uploader":"RedBaron58","files":6,"time":1440641782,"description":"Witnesses S01 x264 mp4\nIn French with hardcoded English subtitles\n &lt;a href=&quot;\nhttp://www.imdb.com/title/tt4322508/&quot; rel=&quot;nofollow&quot; target=&quot;_NEW&quot;&gt;\nhttp://www.imdb.com/title/tt4322508/&lt;/a&gt;\n\nTrailer:\n\n\nThank you for your kind comments and feedback on my other torrents, your feedback is welcome.\n\n\nAbout the Series:\nIn northern France, a grim discovery is made, three bodies with no connection to each other have \nbeen removed from their graves and posed like a family in a show home. When Sandra Winckler, \nthe detective leading the investigation into the macabre stagings, finds a photo of ex-police officer \nPaul Maisonneuve at the crime scene and he is forced to come out of retirement.\n(last one I forgot to tag)\n\n\nI hope you enjoy.\n\n\nTechnical: (All episodes are encoded to the same settings)\n\nGeneral\nComplete name                            : H:Witnesses S01Witnesses S01E01 x264 RB58.mp4\nFormat                                   : MPEG-4\nFormat profile                           : Base Media\nCodec ID                                 : isom\nFile size                                : 579 MiB\nDuration                                 : 53mn 13s\nOverall bit rate                         : 1 521 Kbps\nWriting application                      : Lavf54.63.104\n\nVideo\nID                                       : 1\nFormat                                   : AVC\nFormat/Info                              : Advanced Video Codec\nFormat profile                           : &lt;a class=&quot;__cf_email__&quot; href=&quot;/cdn-cgi/l/email-protection&quot; data-cfemail=&quot;e4ac8d838ca4a8d7cad4&quot;&gt;[email&amp;#160;protected]&lt;/a&gt;&lt;script data-cfhash='f9e31' type=&quot;text/javascript&quot;&gt;\n/* &lt;![CDATA[ */!function(){try{var t=&quot;currentScript&quot;in document?document.currentScript:function(){for(var t=document.getElementsByTagName(&quot;script&quot;),e=t.length;e--;)if(t[e].getAttribute(&quot;data-cfhash&quot;))return t[e]}();if(t&amp;&amp;t.previousSibling){var e,r,n,i,c=t.previousSibling,a=c.getAttribute(&quot;data-cfemail&quot;);if(a){for(e=&quot;&quot;,r=parseInt(a.substr(0,2),16),n=2;a.length-n;n+=2)i=parseInt(a.substr(n,2),16)^r,e+=String.fromCharCode(i);e=document.createTextNode(e),c.parentNode.replaceChild(e,c)}t.parentNode.removeChild(t);}}catch(u){}}()/* ]]&gt; */&lt;/script&gt;\nFormat settings, CABAC                   : Yes\nFormat settings, ReFrames                : 4 frames\nCodec ID                                 : avc1\nCodec ID/Info                            : Advanced Video Coding\nDuration                                 : 53mn 13s\nBit rate                                 : 1 400 Kbps\nWidth                                    : 832 pixels\nHeight                                   : 468 pixels\nDisplay aspect ratio                     : 16:9\nFrame rate mode                          : Constant\nFrame rate                               : 25.000 fps\nColor space                              : YUV\nChroma subsampling                       : 4:2:0\nBit depth                                : 8 bits\nScan type                                : Progressive\nBits/(Pixel*Frame)                       : 0.144\nStream size                              : 533 MiB (92%)\nWriting library                          : x264 core 123 r2189 35cf912\nEncoding settings                        : cabac=1 / ref=3 / deblock=1:0:0 \n\nAudio\nID                                       : 2\nFormat                                   : AAC\nFormat/Info                              : Advanced Audio Codec\nFormat profile                           : LC\nCodec ID                                 : 40\nDuration                                 : 53mn 13s\nBit rate mode                            : Constant\nBit rate                                 : 112 Kbps\nChannel(s)                               : 2 channels\nChannel positions                        : Front: L R\nSampling rate                            : 48.0 KHz\nCompression mode                         : Lossy\nStream size                              : 42.6 MiB (7%)","torrent":{"xt":"urn:btih:1742c70728b45b7815184b8e652db986b7ef5bb7","amp;dn":"Witnesses+S01","amp;tr":["udp%3A%2F%2Ftracker.openbittorrent.com%3A80","udp%3A%2F%2Fopen.demonii.com%3A1337","udp%3A%2F%2Ftracker.coppersurfer.tk%3A6969","udp%3A%2F%2Fexodus.desync.com%3A6969"],"infoHash":"1742c70728b45b7815184b8e652db986b7ef5bb7","infoHashBuffer":{"type":"Buffer","data":[23,66,199,7,40,180,91,120,21,24,75,142,101,45,185,134,183,239,91,183]},"announce":[],"urlList":[]}}